
<svg width="64" height="71" viewBox="0 0 64 71" fill="none" xmlns="http://www.w3.org/2000/svg">
<path fill-rule="evenodd" clip-rule="evenodd" d="M59.6116 14.4711L36.3885 1.04028C35.0266 0.356201 33.5238 0 32 0C30.4762 0 28.9736 0.356201 27.6116 1.04028L4.3884 14.4711C3.11371 15.3027 2.0524 16.4228 1.29001 17.7409C0.527695 19.059 0.0858002 20.5381 0 22.0587V48.9202C0.084198 50.4441 0.525299 51.9268 1.2876 53.2485C2.0499 54.5703 3.11211 55.694 4.3884 56.5289L27.6116 69.96C28.9736 70.644 30.4762 71 32 71C33.5238 71 35.0266 70.644 36.3885 69.96L59.6116 56.5289C60.8879 55.694 61.9501 54.5703 62.7124 53.2485C63.4747 51.9268 63.9158 50.4441 64 48.9202V22.0587C63.9142 20.5381 63.4723 19.059 62.71 17.7409C61.9476 16.4228 60.8863 15.3027 59.6116 14.4711ZM56.6299 45.8305C56.5617 47.0012 56.2204 48.1395 55.6333 49.1542C55.0463 50.169 54.2298 51.0318 53.2493 51.6737L35.3595 62.0147C34.3145 62.543 33.1602 62.8183 31.9895 62.8183C30.8188 62.8183 29.6644 62.543 28.6195 62.0147L10.7507 51.6737C9.7702 51.0318 8.9537 50.169 8.3667 49.1542C7.7796 48.1395 7.43829 47.0012 7.3701 45.8305V25.1695C7.43829 23.9988 7.7796 22.8605 8.3667 21.8458C8.9537 20.831 9.7702 19.9681 10.7507 19.3263L28.5984 8.98529C29.6434 8.45697 30.7977 8.1817 31.9685 8.1817C33.1392 8.1817 34.2936 8.45697 35.3386 8.98529L53.2283 19.3263C54.2126 19.9658 55.0333 20.8277 55.6241 21.8426C56.2149 22.8574 56.5594 23.997 56.6299 25.1695V45.8305ZM19.4673 35.449C19.4746 32.4125 20.6548 29.485 22.7823 27.2261C24.9098 24.9672 27.8355 23.5353 31 23.2041V14C30.5199 14.0952 30.058 14.2604 29.6306 14.4898L14.7815 22.6531C13.9744 23.1681 13.3033 23.8543 12.8208 24.6581C12.3382 25.4618 12.0573 26.3611 12 27.2857V43.6122C12.0066 44.0833 12.0858 44.551 12.2353 45L20.58 40.4082C19.8503 38.8473 19.4713 37.158 19.4673 35.449ZM32 48.3379C30.0535 48.3466 28.1327 47.875 26.3952 46.962C24.6578 46.0489 23.153 44.7204 22.0046 43.0854L14 47.8682C14.3046 48.2335 14.6652 48.5437 15.0673 48.7863L29.3113 57.327C30.1438 57.7694 31.0652 58 32 58C32.9348 58 33.8562 57.7694 34.6887 57.327L48.9327 48.7863C49.3348 48.5437 49.6954 48.2335 50 47.8682L42.016 43C40.8743 44.6537 39.3703 46.0005 37.6284 46.9288C35.8866 47.8571 33.9571 48.3402 32 48.3379ZM35.2973 14.4895L49.3649 22.6474C50.1321 23.1641 50.7694 23.8531 51.2268 24.6601C51.6841 25.4671 51.9488 26.3699 52 27.2974V43.6132C51.9938 44.0839 51.9187 44.5512 51.7771 45L43.8716 40.4112C44.6424 38.6382 44.9886 36.708 44.8824 34.7758C44.7762 32.8436 44.2206 30.9635 43.2602 29.2869C42.2998 27.6103 40.9615 26.184 39.3531 25.1229C37.7447 24.0617 35.9111 23.3955 34 23.1776V14C34.4549 14.0951 34.8925 14.2602 35.2973 14.4895ZM24.5167 40.2223C23.5278 38.8245 23 37.1811 23 35.5C23 33.2457 23.9482 31.0837 25.6361 29.4896C27.3239 27.8955 29.6131 27 32 27C33.78 27 35.5202 27.4985 37.0002 28.4325C38.4803 29.3665 39.6337 30.694 40.3149 32.2472C40.9961 33.8004 41.1743 35.5094 40.8271 37.1583C40.4798 38.8071 39.6226 40.3217 38.3639 41.5104C37.1053 42.6992 35.5017 43.5087 33.7559 43.8367C32.01 44.1646 30.2004 43.9963 28.5559 43.353C26.9113 42.7096 25.5056 41.6202 24.5167 40.2223Z" fill="#ffff"/>
</svg>
